<?xml version="1.0" encoding="UTF-8" standalone="no"?>
<svg
   xmlns:dc="http://purl.org/dc/elements/1.1/"
   xmlns:cc="http://creativecommons.org/ns#"
   xmlns:rdf="http://www.w3.org/1999/02/22-rdf-syntax-ns#"
   xmlns:svg="http://www.w3.org/2000/svg"
   xmlns="http://www.w3.org/2000/svg"
   xmlns:sodipodi="http://sodipodi.sourceforge.net/DTD/sodipodi-0.dtd"
   xmlns:inkscape="http://www.inkscape.org/namespaces/inkscape"
   height="16px"
   id="Layer_1"
   style="enable-background:new 0 0 16 16;"
   version="1.1"
   viewBox="0 0 16 16"
   width="16px"
   x="0px"
   xml:space="preserve"
   y="0px"
   inkscape:version="0.48.1 r9760"
   sodipodi:docname="clues_icon.svg"><metadata
     id="metadata9"><rdf:RDF><cc:Work
         rdf:about=""><dc:format>image/svg+xml</dc:format><dc:type
           rdf:resource="http://purl.org/dc/dcmitype/StillImage" /></cc:Work></rdf:RDF></metadata><defs
     id="defs7" /><sodipodi:namedview
     pagecolor="#ffffff"
     bordercolor="#666666"
     borderopacity="1"
     objecttolerance="10"
     gridtolerance="10"
     guidetolerance="10"
     inkscape:pageopacity="0"
     inkscape:pageshadow="2"
     inkscape:window-width="640"
     inkscape:window-height="480"
     id="namedview5"
     showgrid="false"
     inkscape:zoom="17.375"
     inkscape:cx="8"
     inkscape:cy="8"
     inkscape:window-x="0"
     inkscape:window-y="0"
     inkscape:window-maximized="0"
     inkscape:current-layer="Layer_1" /><path
     d="M15.7,14.3l-3.105-3.105C13.473,10.024,14,8.576,14,7c0-3.866-3.134-7-7-7S0,3.134,0,7s3.134,7,7,7  c1.576,0,3.024-0.527,4.194-1.405L14.3,15.7c0.184,0.184,0.38,0.3,0.7,0.3c0.553,0,1-0.447,1-1C16,14.781,15.946,14.546,15.7,14.3z   M2,7c0-2.762,2.238-5,5-5s5,2.238,5,5s-2.238,5-5,5S2,9.762,2,7z"
     id="path3"
     style="fill:#ffffff" /></svg>